# xmcd
#
# Track frame offsets:
#	150
#	14170
#	31239
#	52327
#	67688
#	83824
#	102206
#	115244
#	127077
#	145460
#	159734
#
# Disc length: 2371 seconds
# Revision: 0
# Processed by: cddbd v1.5.2PL0 Copyright (c) Steve Scherf et al.
# Submitted via: dBpowerAMP V12.0
#
DISCID=9c09410b
DTITLE=The HillBenders - The HillBenders
DYEAR=2018
DGENRE=Bluegrass
TTITLE0=Hey Boys
TTITLE1=Go Away
TTITLE2=Kids
TTITLE3=Wrong Way
TTITLE4=Don't Look at Me
TTITLE5=Lost Your Way
TTITLE6=I've Got a Mind to Move On
TTITLE7=Sod Buster
TTITLE8=Wishing Well
TTITLE9=Planes, Trains and Automobiles
TTITLE10=Daisy Chain
EXTD=
EXTT0=
EXTT1=
EXTT2=
EXTT3=
EXTT4=
EXTT5=
EXTT6=
EXTT7=
EXTT8=
EXTT9=
EXTT10=
PLAYORDER=
